<?xml version="1.0" encoding="UTF-8" standalone="no"?>
<svg
   xmlns:dc="http://purl.org/dc/elements/1.1/"
   xmlns:cc="http://creativecommons.org/ns#"
   xmlns:rdf="http://www.w3.org/1999/02/22-rdf-syntax-ns#"
   xmlns:svg="http://www.w3.org/2000/svg"
   xmlns="http://www.w3.org/2000/svg"
   xmlns:xlink="http://www.w3.org/1999/xlink"
   xmlns:sodipodi="http://sodipodi.sourceforge.net/DTD/sodipodi-0.dtd"
   xmlns:inkscape="http://www.inkscape.org/namespaces/inkscape"
   height="512pt"
   viewBox="-24 0 512 512.00007"
   width="512pt"
   version="1.1"
   id="svg3748"
   sodipodi:docname="wizard-hat-2.svg"
   inkscape:version="0.92.4 (5da689c313, 2019-01-14)">
  <metadata
     id="metadata3754">
    <rdf:RDF>
      <cc:Work
         rdf:about="">
        <dc:format>image/svg+xml</dc:format>
        <dc:type
           rdf:resource="http://purl.org/dc/dcmitype/StillImage" />
        <dc:title></dc:title>
      </cc:Work>
    </rdf:RDF>
  </metadata>
  <defs
     id="defs3752">
    <linearGradient
       id="linearGradient4920"
       inkscape:collect="always">
      <stop
         id="stop4916"
         offset="0"
         style="stop-color:#54ffd1;stop-opacity:1" />
      <stop
         id="stop4918"
         offset="1"
         style="stop-color:#f494ff;stop-opacity:1" />
    </linearGradient>
    <linearGradient
       inkscape:collect="always"
       id="linearGradient4677-7">
      <stop
         style="stop-color:#000000;stop-opacity:1;"
         offset="0"
         id="stop4673" />
      <stop
         style="stop-color:#000000;stop-opacity:0;"
         offset="1"
         id="stop4675" />
    </linearGradient>
    <linearGradient
       inkscape:collect="always"
       xlink:href="#linearGradient4677-7"
       id="linearGradient4679"
       x1="111.77848"
       y1="178.79141"
       x2="387.64641"
       y2="178.79141"
       gradientUnits="userSpaceOnUse" />
    <linearGradient
       inkscape:collect="always"
       xlink:href="#linearGradient4920"
       id="linearGradient4750"
       x1="199.33203"
       y1="105.5"
       x2="290.81927"
       y2="120.59338"
       gradientUnits="userSpaceOnUse" />
    <linearGradient
       inkscape:collect="always"
       xlink:href="#linearGradient4920"
       id="linearGradient4778"
       x1="85.882629"
       y1="364.39648"
       x2="386.00983"
       y2="356.19626"
       gradientUnits="userSpaceOnUse" />
    <linearGradient
       inkscape:collect="always"
       xlink:href="#linearGradient4920"
       id="linearGradient4786"
       x1="164.25974"
       y1="291.17233"
       x2="293.40555"
       y2="292.05063"
       gradientUnits="userSpaceOnUse" />
  </defs>
  <sodipodi:namedview
     pagecolor="#ffffff"
     bordercolor="#666666"
     borderopacity="1"
     objecttolerance="10"
     gridtolerance="10"
     guidetolerance="10"
     inkscape:pageopacity="0"
     inkscape:pageshadow="2"
     inkscape:window-width="1920"
     inkscape:window-height="1080"
     id="namedview3750"
     showgrid="false"
     inkscape:zoom="0.64672852"
     inkscape:cx="301.23513"
     inkscape:cy="322.68778"
     inkscape:window-x="0"
     inkscape:window-y="0"
     inkscape:window-maximized="0"
     inkscape:current-layer="svg3748" />
  <g
     fill-rule="evenodd"
     id="g3742">
    <path
       d="m123.832031 366.523438 38.710938 24.332031 44.613281-9.828125-7.804688 31.023437 211.878907-35.785156c9.789062-1.652344 19.046875 5.320313 20.78125 15.0625 14.796875-8.175781 23.105469-17.359375 23.105469-27.074219 0-22.148437-42.964844-41.496094-107.296876-52.191406-3.804687 54.066406-246.675781 40.292969-235.679687.871094-61.539063 10.835937-102.261719 29.761718-102.261719 51.320312 0 21.8125 41.84375 40.964844 104.777344 51.742188l4.726562-3.949219zm0 0"
       fill="#d675a7"
       id="path3732"
       style="fill:url(#linearGradient4778);fill-opacity:1.0" />
    <path
       d="m112.140625 312.933594c-10.992187 39.421875 231.875 53.199218 235.679687-.867188.980469-14.199218-29.5625-99.0625-53.980468-213.71875-17.484375-82.09375 105.921875-81.898437 92.832031-84.613281-87.40625-7.726563-158.703125-14.167969-196.605469 88.335937l-77.644531 209.996094c-.113281.277344-.199219.558594-.28125.867188zm0 0"
       fill="#e8b3ce"
       id="path3734"
       style="fill:url(#linearGradient4750);fill-opacity:1;stroke:url(#linearGradient4679);stroke-width:0.47475002;stroke-miterlimit:4;stroke-dasharray:none" />
    <path
       d="m196.246094 424.425781 3.105468-12.375 7.804688-31.023437-44.613281 9.828125-38.710938-24.332031-4.449219 45.527343-4.726562 3.945313-30.347656 25.367187 41.871094 18.3125 14.519531 36.144531 2.515625 6.300782 5.566406-6.300782 24.753906-27.914062 45.59375-3.078125-14.9375-25.480469-8.195312-13.96875zm0 0"
       fill="#ffc15a"
       id="path3736"
       style="fill:#ffd904;fill-opacity:1" />
    <path
       d="m199.351562 412.050781-3.105468 12.375-.25.953125 8.195312 13.96875 212.269532-26.484375c10.070312-1.234375 17.089843-10.835937 15.664062-20.917969-.027344-.195312-.054688-.417968-.113281-.613281-1.734375-9.746093-10.992188-16.714843-20.78125-15.0625zm0 0"
       fill="#b3b0b5"
       id="path3738" />
    <path
       d="m112.140625 312.933594c-10.992187 39.421875 231.875 53.199218 235.679687-.867188.503907-7.449218-7.691406-34.441406-19.132812-75.039062-19.046875 19.375-152.269531 27.046875-187.625-2.40625l-28.640625 77.445312c-.113281.277344-.199219.558594-.28125.867188zm0 0"
       fill="#ff6977"
       id="path3740"
       style="fill:url(#linearGradient4786);fill-opacity:1" />
  </g>
  <path
     d="m 320.05078,2.0136719 c -32.73639,-0.024244 -67.07572,6.6417317 -92.74265,28.4939111 -26.89695,22.200918 -40.51689,55.524752 -51.56862,87.588987 -23.15794,62.62928 -46.31607,125.25848 -69.47389,187.88781 -30.348226,6.22148 -61.834422,13.04805 -87.70312,31.0957 -11.1845132,7.56293 -20.2657067,21.79906 -15.1621094,35.5664 7.0281594,17.70536 25.9353324,26.3257 42.3730474,33.33008 16.401288,6.53346 33.707397,10.98035 51.005859,14.69532 -6.322287,6.18343 -14.815767,10.55516 -19.820313,17.85742 -2.828145,7.09893 5.037596,11.34164 10.669399,12.88481 10.755302,5.13779 22.738027,9.08529 32.746617,14.94722 5.76565,13.52648 9.44981,28.1566 16.81445,40.83594 3.65542,6.29337 12.45976,1.72435 15.27501,-3.63282 8.64545,-9.15863 16.53833,-19.84701 25.64296,-28.07226 14.76546,-1.43025 29.86476,-1.18071 44.44141,-3.57031 6.85241,-3.19798 4.40773,-11.87602 0.31034,-16.31426 -1.59513,-4.16745 -9.94698,-11.66669 -0.82183,-10.54669 66.17904,-8.39127 132.44487,-16.26406 198.57008,-24.97695 11.005,-2.62876 19.17762,-13.18782 19.57617,-24.41015 12.3969,-7.35272 25.35148,-20.14032 22.41993,-35.92578 -3.66937,-17.41854 -21.29493,-27.2161 -36.19141,-34.20899 -22.67765,-10.07643 -46.90099,-15.71057 -71.26172,-20.21289 -7.86463,-35.90654 -19.67618,-70.81865 -28.80239,-106.41386 -9.51422,-36.18225 -19.0727,-72.4381 -25.95738,-109.218951 -2.51503,-16.448888 4.61859,-33.627917 18.07813,-43.429687 20.30364,-15.644902 46.38658,-19.881171 70.93164,-24.3125 8.05471,-1.582542 7.9389,-14.1618232 -0.0684,-15.6621095 -23.00675,-2.5478558 -46.13424,-4.297089 -69.28125,-4.2753906 z m 1,15.7031251 c 4.15604,0.119811 12.75058,-0.323605 13.69889,1.039171 -18.02644,8.340966 -36.50471,19.587753 -44.97819,38.45497 -9.04123,18.421434 -5.14179,39.257839 -0.27313,58.211182 8.81663,39.77586 19.11582,79.28207 30.14423,118.51538 -16.03495,7.42467 -34.00989,8.41743 -51.11328,11.35547 -7.49696,3.08571 -4.66462,15.44668 3.40039,14.98633 17.56632,-1.78631 35.50887,-4.19504 52.04492,-11.00977 5.34909,20.50409 12.61185,40.64401 15.99414,61.5957 -0.79344,9.32332 -10.98449,13.78615 -18.42773,17.13477 -29.61399,10.91023 -61.76642,11.89315 -92.9961,11.79883 -31.84734,-1.04816 -64.38011,-3.36548 -94.55273,-14.35352 -5.13643,-2.28239 -10.90105,-4.46696 -14.28125,-9.21875 7.64958,-23.39842 16.99648,-46.3229 25.28711,-69.54297 17.55275,8.68927 37.3309,12.411 56.71289,13.59571 8.3904,-1.12761 8.26664,-14.7144 -0.28906,-15.52344 -17.37896,-1.99142 -35.33361,-4.5126 -50.89063,-13.03516 17.36297,-46.2083 33.77409,-92.79063 51.68155,-138.785065 11.84945,-28.332338 32.38903,-54.917051 61.90634,-66.041104 18.0509,-7.103615 37.6805,-9.045946 56.93164,-9.177734 z m 34.12695,303.634763 c 27.58072,5.52368 56.09113,11.6643 80.04688,27.12696 6.01914,4.29096 14.37262,11.13705 11.26562,19.48242 -2.09013,5.04533 -6.51213,8.5778 -10.71875,11.81836 -6.54621,-9.95663 -19.5904,-13.91631 -30.80713,-10.44663 -65.01028,10.97943 -130.02033,21.96026 -195.03076,32.93881 1.17364,-7.92544 5.66904,-15.72366 4.68555,-23.76367 -2.70374,-7.94587 -12.16806,-4.82551 -18.00996,-3.2259 -11.06233,2.02699 -22.41831,5.74774 -33.30254,6.74739 -12.79406,-7.53098 -24.87014,-16.61625 -38.07617,-23.25977 -7.42579,-1.43732 -10.53807,7.02271 -9.82936,13.02041 -1.16383,11.9118 -2.32619,23.82374 -3.49095,35.73545 -28.221693,-5.55919 -57.412369,-11.6871 -81.965856,-27.41832 -6.090641,-4.33775 -14.580841,-11.14365 -11.41696,-19.61684 6.108009,-11.65247 19.249129,-17.09946 30.607422,-22.33007 17.988154,-7.43971 36.976948,-12.12226 56.025394,-15.92188 7.36208,14.05893 24.19999,18.4939 38.12746,22.77852 43.30887,10.72058 88.48884,12.64239 132.68957,8.75021 22.99543,-2.82311 47.39032,-5.92945 66.91929,-19.65373 4.56485,-3.41562 8.44777,-7.81936 10.82032,-13.03711 l 0.98269,0.18524 z m -222.0039,60.34961 c 9.46146,5.36093 18.12035,12.48687 28.01172,16.91406 11.85021,-1.07787 23.45731,-5.04498 35.21875,-7.15039 -2.48385,11.70391 -6.72994,23.20673 -8.20703,35.0293 4.71379,10.94087 12.03843,20.78683 17.6914,31.33008 -11.87743,1.31891 -24.15666,0.66689 -35.82812,3.01367 -8.99266,7.80028 -15.97751,17.92111 -24.28125,26.51367 -4.74257,-10.85091 -8.24214,-22.37825 -13.66797,-32.86133 -7.94303,-5.6372 -17.98543,-7.96365 -26.63897,-12.46837 -9.604463,-1.66629 -3.47678,-5.58349 1.50583,-9.3355 6.18719,-6.18891 14.71854,-10.39486 19.68978,-17.63167 1.99878,-11.54425 2.34726,-23.41712 3.76562,-35.07617 0.91342,0.57421 1.82683,1.14843 2.74024,1.72265 z m 280.88672,2.20508 c 8.87951,-0.29121 13.84435,11.89053 7.47265,18.01758 -5.7039,5.58205 -14.85709,3.08709 -21.92373,5.10039 -63.74869,7.9558 -127.49771,15.90895 -191.24619,23.8664 -2.84917,-3.22396 -6.33303,-11.22974 -0.35576,-12.31107 68.68912,-11.51437 137.33989,-23.37037 206.05303,-34.6733 z"
     id="path3744"
     inkscape:connector-curvature="0"
     sodipodi:nodetypes="cccccccccccscccccccccccccccccccccccccccccccccccccccccccccccccccccccccccccccccccccccccccccc" />
  <path
     d="m238.230469 262.726562h.199219c5.453124 0 9.875-4.425781 9.875-9.878906 0-5.457031-4.421876-9.878906-9.875-9.878906h-.199219c-5.453125 0-9.875 4.421875-9.875 9.878906 0 5.453125 4.417969 9.878906 9.875 9.878906zm0 0"
     id="path3746" />
  <path
     style="stroke-width:4.11174488"
     d="m 153.688,400.12064 -2.22164,8.90081 c -1.17183,-0.27578 -2.32278,-0.54282 -3.45352,-0.82243 l -7.46245,-1.84959 -1.43836,5.78553 c 0,0 4.0075,0.92496 3.92525,0.97019 2.1998,0.5592 2.59128,1.9978 2.52962,3.14912 l -6.07392,24.34196 c -0.30841,0.68253 -0.98651,1.66891 -2.52427,1.29062 0.0616,0.0823 -3.94662,-0.98622 -3.94662,-0.98622 l -2.71476,6.20744 7.03164,1.75168 3.82381,0.99511 -2.21987,9.00585 5.42772,1.34402 2.21987,-8.92218 c 1.48022,0.41117 2.89833,0.78021 4.31689,1.12151 l -2.09704,8.85809 5.42773,1.35649 2.24122,-9.00586 c 9.21033,1.75573 16.15868,1.05764 19.07803,-7.29332 2.34366,-6.73094 -0.12352,-10.60834 -5.00405,-13.14117 3.51143,-0.79358 6.1687,-3.12525 6.90882,-7.93597 h 0.0409 l 0.0249,0.0125 c 0.98679,-6.53769 -4.00528,-10.07278 -10.85544,-12.45759 l 2.21986,-8.85276 -5.40637,-1.35826 -2.15933,8.66406 c -1.41855,-0.35743 -2.89772,-0.68585 -4.37386,-1.02716 l 2.16289,-8.74594 z m 1.83713,16.45762 c 3.05914,0.7401 12.89887,2.15537 11.30761,8.5697 v 0.0213 l 0.004,0.004 c -1.52136,6.12648 -10.94421,3.02148 -13.99921,2.26082 z m -4.06589,16.28315 c 3.68412,0.94569 15.44696,2.75465 13.69125,9.74462 -1.66114,6.74325 -12.97988,3.0835 -16.65165,2.17892 z"
     id="path4995"
     inkscape:connector-curvature="0" />
</svg>
